<?xml version="1.0" standalone="no"?>
<!DOCTYPE svg PUBLIC "-//W3C//DTD SVG 20010904//EN"
 "http://www.w3.org/TR/2001/REC-SVG-20010904/DTD/svg10.dtd">
<svg version="1.0" xmlns="http://www.w3.org/2000/svg"
 width="239.000000pt" height="228.000000pt" viewBox="0 0 239.000000 228.000000"
 preserveAspectRatio="xMidYMid meet">

<g transform="translate(0.000000,228.000000) scale(0.100000,-0.100000)"
fill="#000000" stroke="none">
<path d="M1317 2107 c-23 -9 -27 -15 -22 -37 4 -19 -1 -33 -20 -54 -14 -15
-25 -31 -25 -36 0 -4 -6 -10 -12 -13 -10 -3 -9 -12 5 -35 9 -16 17 -39 17 -50
0 -12 8 -23 20 -26 11 -3 30 -9 41 -12 13 -4 19 -2 15 4 -6 10 23 27 31 18 8
-8 -49 -76 -58 -70 -5 3 -9 2 -8 -3 4 -21 -2 -34 -13 -27 -7 4 -8 3 -4 -4 4
-7 4 -18 -1 -24 -4 -7 -9 -22 -10 -33 -2 -11 -7 -23 -12 -28 -11 -11 -2 -54
14 -67 6 -5 24 -11 38 -12 28 -2 28 0 5 -91 -10 -42 -3 -77 16 -77 14 0 101
54 123 76 17 16 23 18 23 4 0 -5 -12 -16 -27 -24 -16 -8 -39 -25 -53 -38 -13
-12 -29 -22 -35 -20 -5 2 -7 0 -3 -4 4 -4 -4 -30 -19 -58 -38 -73 -43 -85 -43
-93 0 -5 5 0 11 9 8 15 13 16 29 5 17 -10 27 -8 64 13 25 13 49 21 53 17 10
-10 -47 -56 -69 -57 -10 0 -18 -3 -18 -7 0 -5 -10 -19 -21 -33 -11 -14 -17
-18 -13 -10 7 13 6 13 -10 0 -11 -8 -14 -16 -7 -18 16 -5 14 -23 -6 -45 -10
-11 -13 -17 -6 -14 6 4 13 3 15 -2 1 -6 20 -12 40 -14 21 -2 35 -1 33 3 -4 6
37 30 52 30 4 0 -26 -31 -65 -69 -86 -83 -90 -100 -25 -107 18 -2 23 3 23 21
0 23 17 35 51 35 11 0 22 7 25 15 4 8 12 15 20 15 7 0 19 8 26 18 7 11 23 24
36 31 13 7 22 21 22 34 0 35 19 47 78 47 l53 0 -20 -26 c-16 -20 -18 -31 -11
-45 13 -23 66 -49 107 -52 17 -1 29 -5 26 -9 -2 -5 0 -8 6 -8 5 0 13 12 19 28
l9 27 17 -32 c18 -35 71 -70 81 -53 3 6 4 14 1 19 -8 12 13 8 42 -8 20 -10 26
-10 40 2 15 14 20 13 41 -4 33 -27 117 -27 124 0 3 14 11 17 30 14 22 -4 27
-1 33 21 4 16 1 32 -6 41 -10 12 -10 18 0 30 17 21 3 39 -18 23 -14 -10 -15
-10 -6 0 15 18 6 57 -21 86 -19 20 -20 26 -8 30 8 4 13 13 9 21 -3 8 -2 15 3
15 15 0 22 49 11 70 -7 13 -21 20 -40 20 -36 0 -37 6 -9 36 21 22 21 25 5 49
-9 14 -21 25 -26 25 -6 0 -10 11 -10 25 0 14 -4 25 -8 25 -5 0 -19 9 -32 20
-28 25 -47 26 -29 3 13 -16 12 -17 -3 -4 -17 12 -16 16 13 49 21 24 27 37 19
42 -6 4 -11 11 -9 16 1 5 -16 12 -37 16 -65 12 -82 9 -89 -12 -6 -19 -7 -19
-32 -3 -20 13 -28 14 -31 5 -4 -13 -70 -16 -90 -3 -10 6 -9 13 6 32 17 20 22
21 36 10 13 -11 22 -11 53 4 21 10 41 23 46 29 10 16 -2 86 -22 116 -21 33
-31 40 -61 40 -19 0 -30 9 -44 35 -30 55 -106 106 -106 72 0 -14 -80 -37 -126
-37 -21 0 -22 3 -15 23 13 33 -8 71 -39 75 -14 2 -29 10 -33 18 -9 16 -50 18
-77 4 -13 -7 -21 -7 -25 0 -8 12 -31 11 -68 -3z m319 -252 c14 -15 18 -25 10
-25 -7 0 -21 -9 -31 -20 -19 -20 -19 -20 -32 11 -12 28 -11 33 4 45 23 18 22
18 49 -11z m368 -163 c3 -5 -1 -9 -9 -9 -8 0 -12 4 -9 9 3 4 7 8 9 8 2 0 6 -4
9 -8z m19 -79 c-18 -28 -28 -31 -14 -4 6 10 8 20 6 23 -3 3 1 5 9 5 12 0 12
-4 -1 -24z m-264 -210 c10 -24 10 -26 -2 -10 -8 9 -19 17 -26 17 -6 0 -11 5
-11 10 0 21 27 9 39 -17z m-144 -108 c-28 -23 -55 -32 -55 -19 0 12 46 43 65
44 17 0 16 -4 -10 -25z m-106 -46 c1 -4 -5 -9 -12 -12 -10 -4 -12 3 -9 27 4
27 6 28 13 11 4 -11 8 -23 8 -26z m327 -29 c0 -10 -2 -17 -5 -15 -2 3 -10 0
-18 -6 -16 -14 -17 -5 -3 22 14 25 26 24 26 -1z m-366 -4 c0 -11 -19 -15 -25
-6 -3 5 1 10 9 10 9 0 16 -2 16 -4z m320 -25 c0 -13 -26 -32 -33 -24 -8 7 11
33 24 33 5 0 9 -4 9 -9z m205 -21 c3 -5 1 -10 -4 -10 -6 0 -11 5 -11 10 0 6 2
10 4 10 3 0 8 -4 11 -10z m40 -81 c-7 -11 7 -12 21 -1 5 4 1 -1 -9 -10 -11
-10 -24 -18 -31 -17 -8 0 -8 2 0 5 7 3 9 14 6 26 -3 15 -1 19 7 14 6 -4 9 -12
6 -17z"/>
<path d="M1090 2056 c0 -2 7 -7 16 -10 8 -3 12 -2 9 4 -6 10 -25 14 -25 6z"/>
<path d="M602 1988 c-7 -7 -12 -18 -12 -25 0 -7 -4 -13 -9 -13 -5 0 -21 -16
-36 -36 -19 -25 -22 -33 -11 -27 20 11 95 -10 108 -30 4 -7 8 9 8 34 0 31 7
55 20 72 16 21 17 26 5 31 -8 3 -17 1 -20 -4 -4 -7 -13 -7 -24 0 -12 6 -22 5
-29 -2z"/>
<path d="M452 1878 c-20 -20 -14 -37 18 -53 35 -18 37 -26 10 -43 -29 -18 -25
-43 14 -88 28 -32 36 -37 48 -26 12 10 19 8 37 -7 12 -11 30 -17 41 -14 11 3
20 0 20 -6 0 -18 -31 -25 -51 -13 -22 14 -49 16 -49 3 0 -5 -33 -11 -72 -14
-93 -6 -111 -11 -116 -27 -8 -23 -92 -101 -102 -95 -14 8 -50 -4 -50 -16 0 -6
6 -7 13 -4 6 4 -1 -4 -16 -17 -18 -16 -26 -30 -21 -41 3 -9 -3 -29 -13 -44
-29 -41 -34 -61 -19 -75 10 -9 10 -17 3 -30 -19 -29 1 -33 56 -10 29 12 58 22
65 22 21 0 13 -28 -13 -47 -13 -10 -44 -33 -69 -51 -28 -21 -50 -31 -58 -26
-9 6 -9 3 1 -9 8 -10 11 -20 8 -23 -10 -10 27 -44 47 -44 11 0 31 12 43 27 13
16 20 21 17 12 -11 -34 63 -69 82 -38 4 7 17 -1 35 -20 30 -33 66 -41 75 -16
4 8 10 12 15 9 6 -3 17 0 25 7 18 14 56 20 48 7 -3 -4 5 -6 18 -4 14 2 22 10
21 20 0 10 10 22 23 28 13 6 24 17 24 23 0 7 14 15 30 19 18 3 30 12 30 21 0
9 4 14 9 11 12 -8 41 4 41 16 0 5 -5 6 -11 2 -8 -4 -8 0 0 15 13 24 23 28 15
6 -4 -9 0 -15 10 -15 20 0 21 14 1 34 -8 8 -15 20 -15 26 0 6 -3 9 -7 7 -9 -5
-34 18 -27 25 2 3 -7 11 -21 18 -14 7 -25 17 -25 21 0 14 22 22 29 11 3 -6 25
-18 49 -27 41 -17 43 -17 57 1 23 31 25 53 5 59 -15 5 -16 12 -10 39 4 19 10
38 14 44 3 6 2 13 -4 17 -5 3 -10 1 -10 -5 0 -6 -19 4 -42 22 -24 19 -55 42
-70 51 -15 9 -26 23 -24 30 1 6 1 9 -1 5 -6 -11 -23 -10 -23 1 0 19 32 21 37
3 2 -10 20 -26 39 -37 19 -10 34 -22 34 -27 0 -4 4 -8 9 -8 5 0 4 13 -2 30 -9
25 -8 35 6 59 13 22 15 36 8 54 -6 16 -7 38 0 59 11 41 11 41 -1 33 -12 -7
-90 32 -90 45 0 5 -6 7 -13 4 -7 -2 -25 6 -38 18 -31 28 -102 68 -121 68 -8 0
-19 -5 -26 -12z m119 -275 c13 -16 12 -17 -3 -4 -10 7 -18 15 -18 17 0 8 8 3
21 -13z m-356 -172 c3 -5 2 -12 -3 -15 -5 -3 -9 1 -9 9 0 17 3 19 12 6z m200
-71 c-3 -6 4 -10 17 -10 33 0 44 -11 46 -47 2 -30 0 -33 -28 -33 -33 0 -35 2
-19 32 9 16 7 23 -10 35 -18 12 -21 33 -5 33 3 0 2 -4 -1 -10z"/>
<path d="M771 1860 c-24 -17 -53 -30 -64 -30 -16 0 -17 -3 -7 -15 7 -8 16 -12
21 -9 5 3 12 -2 15 -10 8 -21 23 -20 31 2 3 9 19 34 36 55 35 45 27 47 -32 7z"/>
<path d="M1261 1816 c-9 -11 -9 -16 1 -22 7 -4 10 -4 6 1 -4 4 -3 14 3 22 6 7
9 13 6 13 -2 0 -10 -6 -16 -14z"/>
<path d="M1140 1675 c0 -2 10 -10 23 -16 20 -11 21 -11 8 4 -13 16 -31 23 -31
12z"/>
<path d="M1196 1627 c3 -10 9 -15 12 -12 3 3 0 11 -7 18 -10 9 -11 8 -5 -6z"/>
<path d="M801 1542 c-48 -19 -65 -40 -29 -37 13 1 22 8 20 14 -1 7 2 10 7 7 5
-3 20 3 32 14 29 23 26 24 -30 2z"/>
<path d="M1120 1536 c0 -2 7 -7 16 -10 8 -3 12 -2 9 4 -6 10 -25 14 -25 6z"/>
<path d="M1166 1465 c4 -8 12 -15 20 -15 20 0 17 7 -6 20 -16 9 -18 8 -14 -5z"/>
<path d="M787 1313 c-11 -11 -8 -21 9 -27 13 -5 14 -4 6 7 -7 8 -9 17 -5 20 3
4 4 7 1 7 -2 0 -8 -3 -11 -7z"/>
<path d="M1215 1310 c-3 -5 0 -18 7 -29 11 -16 15 -17 27 -4 11 12 10 14 -5
11 -13 -2 -19 3 -18 15 2 19 -2 22 -11 7z"/>
<path d="M763 1218 c-2 -15 3 -18 19 -12 15 4 18 3 13 -6 -5 -9 -4 -11 4 -6 8
6 9 12 2 20 -6 7 -8 16 -5 19 4 3 -2 5 -13 4 -11 0 -20 -9 -20 -19z"/>
<path d="M1176 1211 c-4 -7 -5 -15 -2 -18 9 -9 19 4 14 18 -4 11 -6 11 -12 0z"/>
<path d="M1230 1216 c0 -2 7 -9 15 -16 9 -7 15 -8 15 -2 0 5 -7 12 -15 16 -8
3 -15 4 -15 2z"/>
<path d="M1300 1066 c0 -2 7 -6 15 -10 8 -3 15 -1 15 4 0 6 -7 10 -15 10 -8 0
-15 -2 -15 -4z"/>
<path d="M757 938 c2 -5 -6 -8 -19 -7 -13 0 -72 -6 -133 -15 -60 -9 -126 -16
-146 -16 -20 0 -39 -3 -43 -7 -4 -4 -25 -6 -46 -4 -23 1 -40 -2 -40 -8 0 -6
-6 -8 -13 -5 -8 3 -20 -2 -27 -11 -7 -8 -37 -22 -66 -31 -30 -8 -54 -17 -54
-19 0 -10 121 5 152 19 21 9 55 16 76 16 21 0 43 5 49 11 12 12 37 3 28 -11
-3 -5 -1 -11 5 -15 6 -4 7 -11 4 -17 -5 -7 -2 -9 8 -5 11 4 18 -1 21 -14 3
-10 2 -19 -3 -19 -13 0 -140 -126 -140 -139 0 -6 9 -2 20 9 11 11 24 20 29 20
18 0 71 52 64 62 -3 6 -1 8 4 5 15 -10 63 43 70 76 4 22 10 27 24 24 11 -3 19
0 19 6 0 7 4 6 10 -3 8 -12 15 -13 57 -1 26 8 60 16 75 18 15 3 28 13 31 25 4
13 10 17 18 12 8 -5 10 -3 4 6 -5 8 1 19 16 31 l24 19 -42 -2 c-22 -2 -39 -6
-36 -10z"/>
<path d="M1371 901 c-12 -23 -26 -41 -32 -41 -6 0 -7 -5 -3 -12 5 -8 2 -9 -11
-4 -14 5 -16 4 -7 -7 7 -8 10 -16 8 -18 -2 -2 2 -10 10 -17 10 -10 14 -10 14
-1 0 7 3 9 7 6 3 -4 17 0 31 9 16 11 27 13 34 6 14 -14 2 -45 -13 -36 -8 5 -9
3 -4 -6 4 -7 2 -16 -6 -21 -10 -6 -3 -13 26 -25 22 -9 55 -29 73 -45 18 -16
36 -29 41 -29 4 0 29 -39 55 -87 25 -49 57 -101 70 -117 l23 -30 -1 66 c-1 59
-4 69 -28 92 -16 14 -28 31 -28 39 0 7 -16 32 -35 54 -42 49 -61 93 -41 93 25
0 81 -28 126 -64 25 -20 46 -31 48 -26 5 13 -18 53 -40 68 -10 7 -18 21 -18
31 0 10 -15 25 -32 34 l-33 17 30 -5 c28 -4 108 -8 130 -6 5 1 -7 12 -28 26
-20 14 -37 30 -37 34 0 14 -101 19 -147 7 -49 -12 -103 2 -140 36 l-22 20 -20
-41z"/>
<path d="M766 841 c-4 -5 -2 -12 3 -15 5 -4 12 -2 15 3 4 5 2 12 -3 15 -5 4
-12 2 -15 -3z"/>
<path d="M1836 835 c-9 -25 -7 -57 3 -50 11 6 51 -47 51 -68 0 -19 46 -74 54
-66 4 3 3 17 -2 30 -5 13 -12 36 -16 52 -6 26 -5 27 21 21 16 -3 41 -19 56
-36 16 -16 31 -27 35 -23 4 4 1 10 -5 12 -7 3 -13 10 -13 16 -1 27 -110 112
-133 104 -7 -2 -19 2 -28 10 -14 12 -17 12 -23 -2z m108 -43 c3 -5 -1 -9 -9
-9 -8 0 -12 4 -9 9 3 4 7 8 9 8 2 0 6 -4 9 -8z"/>
<path d="M422 814 c-18 -15 -29 -31 -25 -37 3 -7 3 -9 -2 -5 -4 4 -22 0 -39
-9 -17 -9 -37 -18 -44 -19 -20 -4 -42 -25 -36 -35 3 -5 0 -8 -7 -7 -6 2 -21
-13 -31 -32 -12 -21 -14 -28 -4 -16 9 11 26 21 38 23 13 2 29 11 36 20 7 10
12 12 12 5 0 -18 77 26 121 68 56 55 41 91 -19 44z m-102 -78 c0 -2 -8 -10
-17 -17 -16 -13 -17 -12 -4 4 13 16 21 21 21 13z m45 -14 c-3 -3 -11 0 -18 7
-9 10 -8 11 6 5 10 -3 15 -9 12 -12z"/>
<path d="M703 766 c-34 -33 -70 -57 -103 -69 -31 -11 -48 -22 -44 -29 4 -7 3
-8 -4 -4 -15 9 -69 -19 -80 -42 -5 -9 -7 -24 -5 -32 4 -12 3 -12 -5 -1 -8 11
-15 10 -40 -5 -17 -10 -29 -21 -27 -25 3 -4 -3 -6 -13 -5 -11 1 -18 -7 -20
-23 -3 -17 0 -21 10 -17 7 4 3 -1 -9 -10 -13 -9 -23 -20 -23 -25 0 -11 86 47
102 69 7 9 30 26 51 36 27 14 34 22 25 28 -9 6 -6 7 8 3 14 -3 28 1 38 11 10
9 19 15 21 13 9 -10 9 -44 0 -44 -37 -4 -70 -34 -96 -88 -24 -49 -25 -57 -9
-42 11 10 20 24 20 31 0 7 6 11 13 9 17 -6 31 7 111 100 37 44 82 95 99 113
18 21 31 46 33 68 2 19 2 34 1 33 -1 -1 -25 -24 -54 -53z"/>
<path d="M775 800 c-24 -27 -16 -33 14 -11 13 10 19 21 14 24 -6 4 -18 -2 -28
-13z"/>
<path d="M1254 802 c11 -12 20 -22 20 -22 1 0 2 10 3 23 0 12 -1 16 -4 9 -4
-10 -8 -10 -21 0 -12 9 -11 6 2 -10z"/>
<path d="M1215 769 c-4 -6 -5 -12 -2 -15 2 -3 7 2 10 11 7 17 1 20 -8 4z"/>
<path d="M1064 740 c0 -13 4 -16 10 -10 7 7 7 13 0 20 -6 6 -10 3 -10 -10z"/>
<path d="M1307 739 c7 -7 15 -10 18 -7 3 3 -2 9 -12 12 -14 6 -15 5 -6 -5z"/>
<path d="M1348 743 c6 -2 9 -10 6 -15 -4 -7 -2 -8 5 -4 13 9 5 26 -12 25 -9 0
-8 -2 1 -6z"/>
<path d="M1095 719 c-4 -6 -5 -12 -2 -15 2 -3 7 2 10 11 7 17 1 20 -8 4z"/>
<path d="M1021 673 c-18 -19 -10 -25 12 -8 10 7 15 15 10 18 -4 3 -14 -2 -22
-10z"/>
<path d="M1310 675 c0 -5 5 -17 10 -25 5 -8 10 -10 10 -5 0 6 -5 17 -10 25 -5
8 -10 11 -10 5z"/>
<path d="M785 627 c-17 -17 -50 -48 -74 -67 -23 -19 -52 -44 -63 -55 -31 -31
-147 -211 -148 -228 0 -17 108 86 131 125 13 23 45 62 71 88 l46 47 7 -36 c4
-20 15 -51 26 -69 10 -18 19 -45 20 -60 1 -26 1 -26 16 7 11 28 12 43 4 77
-17 67 -13 96 19 144 27 40 28 46 12 52 -29 11 -36 9 -67 -25z"/>
<path d="M1859 648 c-1 -7 -1 -16 0 -20 0 -5 -5 -8 -11 -8 -7 0 -1 -11 14 -24
14 -14 28 -31 30 -38 4 -10 10 -10 31 -1 24 11 25 15 16 42 -6 16 -17 32 -25
35 -10 4 -13 1 -9 -7 3 -6 -2 -2 -11 11 -18 24 -33 29 -35 10z"/>
<path d="M1193 611 c0 -11 5 -18 9 -15 4 3 5 11 1 19 -7 21 -12 19 -10 -4z"/>
<path d="M950 605 c-6 -8 -10 -19 -8 -24 1 -6 8 1 15 14 13 28 11 31 -7 10z"/>
<path d="M1083 596 c0 -18 3 -24 9 -18 7 7 7 16 0 28 -8 14 -9 13 -9 -10z"/>
<path d="M1385 600 c-3 -5 -1 -10 4 -10 6 0 11 5 11 10 0 6 -2 10 -4 10 -3 0
-8 -4 -11 -10z"/>
<path d="M1945 490 c3 -5 8 -10 11 -10 2 0 4 5 4 10 0 6 -5 10 -11 10 -5 0 -7
-4 -4 -10z"/>
<path d="M1503 473 c32 -95 51 -142 57 -140 4 1 37 -21 73 -50 63 -50 65 -51
65 -26 0 28 -41 76 -90 108 -18 11 -28 26 -28 42 0 14 -13 36 -32 54 -37 33
-53 37 -45 12z"/>
<path d="M1206 462 c-2 -4 -1 -14 4 -22 7 -11 9 -9 7 8 -1 24 -3 26 -11 14z"/>
<path d="M1357 459 c7 -7 15 -10 18 -7 3 3 -2 9 -12 12 -14 6 -15 5 -6 -5z"/>
<path d="M1259 407 c8 -9 16 -15 19 -12 3 3 12 -1 21 -8 14 -11 14 -10 2 6 -8
9 -16 15 -19 12 -3 -3 -12 1 -21 8 -14 11 -14 10 -2 -6z"/>
<path d="M866 383 c9 -38 32 -93 38 -93 3 0 4 19 2 43 -3 23 -5 50 -5 60 -1
10 -9 17 -21 17 -17 0 -19 -4 -14 -27z"/>
<path d="M1130 400 c-9 -6 -10 -10 -3 -10 6 0 15 5 18 10 8 12 4 12 -15 0z"/>
<path d="M1070 365 c0 -7 30 -13 34 -7 3 4 -4 9 -15 9 -10 1 -19 0 -19 -2z"/>
<path d="M1294 350 c1 -21 36 -58 36 -38 0 10 3 9 11 -2 8 -12 10 -12 7 -1 -2
8 -12 15 -22 17 -25 4 -31 12 -18 27 9 10 8 14 -2 14 -7 0 -13 -8 -12 -17z"/>
<path d="M1156 244 c-3 -9 -4 -19 -1 -22 3 -3 5 1 5 9 0 11 2 11 10 -1 5 -8
10 -10 10 -5 0 6 -4 16 -9 23 -6 11 -10 10 -15 -4z"/>
</g>
</svg>
